<?xml version="1.0" encoding="UTF-8"?>
<svg viewBox="0 0 156 42" xmlns="http://www.w3.org/2000/svg">
<metadata>image/svg+xml</metadata>
<g>
<title>Bhadoo Cloud</title>
<rect x="-1" y="-1" width="158" height="44" fill="none"/>
</g>
<g>
<title>Hash Hackers</title>
<g fill="#fff" transform="matrix(.26458 0 0 .26458 -65.768 27.592)" text-anchor="middle">
<path d="m596.32-43.607q-15.627 0-15.627-10.24v-16.587q0-10.08 15.36-10.08h20.427q2.6667 0 2.6667 2.1867 0 2.1867-2.6667 2.1867h-20.32q-9.7067 0-9.7067 5.8133v16.32q0 6.0267 10.133 6.0267h19.893q2.6667 0 2.6667 2.1867t-2.6667 2.1867h-20.16z"/>
<path d="m644.08-43.607q-15.627 0-15.627-10.453v-24.48q0-2.24 2.8267-2.24 2.9333 0 2.9333 2.24v24.32q0 6.24 10.133 6.24h22.08q2.6667 0 2.6667 2.1867t-2.6667 2.1867h-22.347z"/>
<path d="m712.96-70.22q0-5.92-9.7067-5.92h-11.68q-9.7067 0-9.7067 5.92v16.213q0 6.0267 9.8133 6.0267h11.467q9.8133 0 9.8133-6.0267v-16.213zm-21.227 10.4q-15.627 0-15.627-10.24v-16.48q0-10.187 15.36-10.187h11.893q15.36 0 15.36 10.187v16.48q0 10.24-15.627 10.24h-11.36z"/>
<path d="m744.6-43.607q-15.627 0-15.627-10.453v-24.48q0-2.24 2.88-2.24 2.88 0 2.88 2.24v24.32q0 6.24 10.133 6.24h11.627q10.08 0 10.08-6.24v-24.32q0-2.24 2.9333-2.24 2.88 0 2.88 2.24v24.48q0 10.453-15.627 10.453h-12.16z"/>
<path d="m821.28-70.06q0-6.08-10.613-6.08h-21.547q-0.4267 0-0.4267 0.32v27.52q0 0.32 0.4267 0.32h21.493q10.667 0 10.667-6.08v-16zm-35.787 26.453q-2.56 0-2.56-1.8667v-33.173q0-1.8667 2.4534-1.8667h25.067q16.587 0 16.587 10.293v16.32q0 10.293-16.587 10.293h-24.96z"/>
<path d="m338.53 29.516q0 14.592-24.672 14.592h-49.344q-4.608 0-4.608-3.744v-58.944q0-3.744 4.608-3.744h47.808q25.152 0 25.152 15.84v5.472q0 7.488-7.968 11.424 9.024 4.032 9.024 12.384v6.72zm-10.368-7.104q0-8.064-14.688-8.064h-43.2v21.216q0 0.672 0.768 0.672h42.432q14.688 0 14.688-7.584v-6.24zm-0.96-28.608q0-8.256-14.784-8.256h-41.376q-0.768 0-0.768 0.672v20.736h42.912q14.016 0 14.016-7.776v-5.376z"/>
<path d="m424.83 15.212h-58.368v25.344q0 4.032-5.28 4.032-5.088 0-5.088-4.032v-59.328q0-4.032 5.376-4.032 4.992 0 4.992 4.032v26.112h58.368v-26.208q0-3.936 5.088-3.936 5.28 0 5.28 3.936v59.424q0 4.032-5.28 4.032-5.088 0-5.088-4.032v-25.344z"/>
<path d="m518.67 26.348h-48.48l-9.888 15.456q-1.824 2.784-4.992 2.784-2.4 0-3.84-0.96-1.44-1.056-1.44-2.976 0-0.768 0.192-1.344 0.192-0.672 0.864-1.632l38.016-57.888q0.864-1.344 2.208-1.92 1.44-0.576 3.072-0.672 3.36 0 5.088 2.592l38.112 57.792q0.768 0.96 0.96 1.632 0.288 0.672 0.288 1.44 0 1.92-1.44 2.976-1.44 0.96-3.84 0.96-3.072 0-4.896-2.784l-9.984-15.456zm-43.68-7.392h38.976l-19.584-30.336-19.392 30.336z"/>
<path d="m622.56-3.5079q0-10.944-19.104-10.944h-38.784q-0.768 0-0.768 0.576v49.536q0 0.576 0.768 0.576h38.688q19.2 0 19.2-10.944v-28.8zm-64.416 47.616q-4.608 0-4.608-3.36v-59.712q0-3.36 4.416-3.36h45.12q29.856 0 29.856 18.528v29.376q0 18.528-29.856 18.528h-44.928z"/>
<path d="m717.46-3.7959q0-10.656-17.472-10.656h-21.024q-17.472 0-17.472 10.656v29.184q0 10.848 17.664 10.848h20.64q17.664 0 17.664-10.848v-29.184zm-38.208 47.904q-28.128 0-28.128-18.432v-29.664q0-18.336 27.648-18.336h21.408q27.648 0 27.648 18.336v29.664q0 18.432-28.128 18.432h-20.448z"/>
<path d="m812.52-3.7959q0-10.656-17.472-10.656h-21.024q-17.472 0-17.472 10.656v29.184q0 10.848 17.664 10.848h20.64q17.664 0 17.664-10.848v-29.184zm-38.208 47.904q-28.128 0-28.128-18.432v-29.664q0-18.336 27.648-18.336h21.408q27.648 0 27.648 18.336v29.664q0 18.432-28.128 18.432h-20.448z"/>
</g>
</g>
</svg>
